<?xml version="1.0" standalone="no"?>
<!DOCTYPE svg PUBLIC "-//W3C//DTD SVG 20010904//EN"
 "http://www.w3.org/TR/2001/REC-SVG-20010904/DTD/svg10.dtd">
<svg version="1.0" xmlns="http://www.w3.org/2000/svg"
 width="250.000000pt" height="250.000000pt" viewBox="0 0 250.000000 250.000000"
 preserveAspectRatio="xMidYMid meet">
<metadata>
Created by potrace 1.11, written by Peter Selinger 2001-2013
</metadata>
<g transform="translate(0.000000,250.000000) scale(0.100000,-0.100000)"
fill="#000000" stroke="none">
<path d="M1141 2217 c-7 -10 -20 -17 -27 -17 -8 0 -14 -7 -14 -15 0 -8 5 -15
11 -15 6 0 9 -8 7 -18 -4 -14 2 -17 32 -17 29 0 36 3 33 16 -3 9 0 20 6 23 18
11 13 26 -8 26 -11 0 -21 7 -23 17 -3 15 -4 15 -17 0z"/>
<path d="M1354 2196 c-15 -16 -2 -45 16 -37 19 8 22 23 6 37 -8 8 -15 8 -22 0z"/>
<path d="M1547 2176 c-6 -15 19 -30 33 -21 13 8 1 35 -15 35 -7 0 -15 -6 -18
-14z"/>
<path d="M1257 2074 c-8 -8 1 -24 14 -24 5 0 9 7 9 15 0 15 -12 20 -23 9z"/>
<path d="M898 2029 c-10 -10 -13 -21 -8 -24 5 -3 6 -13 3 -23 -5 -13 -3 -14 7
-5 7 6 19 9 26 6 8 -3 14 1 14 10 0 8 6 18 13 20 9 4 8 6 -2 6 -8 1 -19 7 -25
15 -9 11 -14 10 -28 -5z"/>
<path d="M1398 1998 c-4 -10 -18 -18 -30 -18 -22 -1 -22 -1 -5 -15 13 -9 17
-20 12 -35 -6 -19 -5 -20 13 -9 16 10 23 10 35 0 13 -10 15 -9 10 10 -4 15 0
26 12 35 18 13 17 14 -7 14 -17 0 -28 6 -30 18 -3 16 -4 16 -10 0z"/>
<path d="M1074 1992 c-15 -9 -3 -37 16 -37 19 0 31 28 16 37 -6 4 -13 8 -16 8
-3 0 -10 -4 -16 -8z"/>
<path d="M1074 1847 c-10 -26 -23 -47 -28 -47 -4 0 -24 17 -43 38 l-34 37 6
-60 7 -60 -213 -205 c-199 -193 -291 -281 -633 -612 l-139 -134 81 -81 81 -81
63 60 c35 33 162 156 283 273 121 117 252 243 290 280 39 37 103 99 144 139
l75 71 12 -60 c6 -33 15 -74 19 -91 6 -29 4 -34 -36 -62 -24 -16 -57 -44 -74
-62 -30 -31 -30 -32 -28 -138 2 -121 18 -185 48 -191 25 -4 102 -87 120 -128
9 -21 31 -42 67 -62 29 -16 59 -34 66 -38 10 -6 10 -17 -2 -56 -8 -26 -14 -51
-13 -55 0 -4 -12 -9 -28 -12 l-28 -5 40 -37 c71 -64 223 -147 298 -164 138
-32 261 -38 370 -19 136 23 296 108 405 215 106 103 155 182 205 330 28 81 46
240 27 240 -14 0 -73 -81 -66 -91 6 -10 -13 -49 -25 -49 -4 0 -13 24 -20 54
-7 30 -25 72 -41 94 -24 34 -36 41 -88 51 -35 7 -67 20 -77 31 -25 28 -38 11
-23 -28 11 -29 16 -32 40 -27 20 5 34 1 50 -15 14 -13 19 -24 13 -28 -71 -50
-157 -104 -159 -101 -2 2 -23 46 -47 97 -39 83 -59 111 -59 81 0 -5 18 -52 40
-104 22 -52 40 -99 40 -104 0 -15 5 -14 49 9 21 10 41 17 44 14 14 -14 -35
-102 -77 -139 -44 -40 -46 -44 -46 -95 0 -48 -3 -56 -38 -89 -21 -20 -56 -57
-77 -83 -34 -40 -47 -48 -85 -53 -44 -6 -45 -5 -71 37 -50 82 -52 87 -40 132
11 37 9 49 -17 120 l-29 80 -54 -3 c-30 -1 -70 -4 -91 -5 -31 -2 -44 4 -89 45
-51 46 -53 49 -51 96 6 118 11 132 87 214 35 38 31 37 198 65 15 2 28 0 28 -6
1 -5 2 -15 3 -22 0 -7 21 -25 45 -42 43 -29 44 -29 60 -9 9 12 23 19 31 17 8
-2 35 -8 59 -14 54 -13 77 -6 83 25 5 25 -7 35 -45 35 -11 0 -33 15 -48 33
l-27 32 -11 -27 c-6 -16 -13 -28 -15 -28 -9 0 -33 54 -30 65 2 6 -14 22 -35
37 -37 26 -39 27 -44 8 -3 -13 1 -21 13 -25 9 -3 25 -14 34 -24 15 -16 15 -19
1 -31 -9 -7 -17 -11 -18 -9 -1 2 -19 23 -39 45 l-36 42 -41 -19 c-23 -10 -41
-22 -41 -26 0 -5 -13 -23 -29 -40 -25 -27 -32 -30 -62 -24 -33 7 -34 9 -34 51
l1 45 47 -1 c26 0 47 1 47 2 0 2 -9 18 -20 36 -26 44 -26 46 14 53 19 4 43 18
55 31 11 13 28 24 36 24 8 0 15 6 15 14 0 21 21 31 30 16 4 -7 28 -15 51 -17
39 -4 45 -1 54 19 6 14 17 22 28 20 15 -3 17 1 12 18 -4 11 -3 20 2 19 17 -3
33 1 33 9 0 5 -13 7 -29 4 -22 -3 -32 1 -40 16 -8 15 -8 22 2 25 6 2 9 8 4 13
-4 4 -17 -2 -29 -14 -18 -17 -19 -23 -8 -36 10 -13 9 -20 -4 -41 -21 -32 -43
-32 -58 0 -9 20 -14 22 -30 14 -53 -29 -66 29 -13 60 19 11 35 24 35 29 0 11
16 13 125 11 140 -2 184 -2 269 0 78 1 79 1 61 21 -25 28 -210 116 -270 128
-149 32 -263 32 -390 1 -55 -13 -162 -58 -208 -86 -28 -17 -50 -23 -82 -22
-50 3 -52 7 -29 50 20 39 14 45 -25 25 -36 -19 -55 -20 -49 -3 3 6 -1 30 -7
51 l-11 40 -20 -47z m42 -93 c24 6 33 -7 14 -19 -18 -11 -11 -21 17 -23 37 -3
40 -9 9 -23 -30 -14 -33 -27 -8 -45 9 -7 12 -14 5 -14 -17 0 -143 130 -143
148 0 13 4 11 16 -6 20 -29 28 -28 44 6 l14 27 4 -28 c3 -25 7 -28 28 -23z
m123 -100 c6 -15 9 -35 5 -46 -5 -18 -9 -17 -41 17 -27 29 -32 39 -22 46 25
16 46 9 58 -17z m338 -21 c39 -51 36 -66 -14 -77 -29 -7 -31 -5 -27 16 5 20 4
21 -6 6 -12 -19 -35 -24 -44 -9 -6 9 57 81 70 81 4 0 13 -8 21 -17z m-376 -43
c26 0 24 -16 -5 -45 -22 -22 -39 -54 -41 -80 -1 -11 -26 -8 -36 3 -4 4 -9 24
-12 44 -5 30 -1 41 20 63 15 14 33 23 41 20 7 -3 22 -5 33 -5z m-371 -226
c-51 -49 -109 -105 -129 -124 -21 -19 -122 -116 -227 -216 -276 -264 -308
-294 -314 -294 -3 0 -23 17 -45 36 l-40 36 85 81 c81 77 382 363 480 457 26
25 82 78 124 119 l77 74 41 -40 41 -41 -93 -88z m1266 -753 c-30 -48 -55 -47
-48 2 2 20 16 42 35 59 l32 27 3 -24 c2 -13 -8 -42 -22 -64z"/>
<path d="M1240 1860 c-8 -15 -6 -21 10 -30 11 -6 25 -8 30 -5 16 10 12 42 -6
49 -22 8 -22 8 -34 -14z"/>
</g>
</svg>
